#!OML:ASF H:\BabyWalks\Project 1\Capture day 1\Session 1\baby.ASF
:FULLY-SPECIFIED
:DEGREES
897
root 40.8394 17.3537 1.53437 -394.844 81.5768 -397.686
lowerback 20.6732 1.32765 5.97183
upperback 7.1673 3.48864 2.19081
thorax -3.54856 1.9452 -1.8586
lowerneck 0.991929 2.08181 8.56214
upperneck -8.23536 2.38186 -12.0397
head -2.3109 1.38122 -5.12086
rclavicle 4.87022e-014 -1.19271e-014
rhumerus -40.3031 6.74078 -81.0837
rradius 55.9515
rwrist -1.79571
rhand -10.5552 -16.7298
rfingers 7.12502
rthumb 15.449 -46.1325
lclavicle 4.87022e-014 -1.19271e-014
lhumerus -52.1402 -6.42137 85.4782
lradius 37.9434
lwrist -4.20025
lhand 11.2132 13.8864
lfingers 7.12502
lthumb 36.2761 40.1346
rfemur -6.24059 15.472 25.5021
rtibia 25.5078
rfoot -18.8192 13.4011
rtoes 10.0286
lfemur -26.4904 -9.09851 -4.61023
ltibia 29.9494
lfoot -11.1447 -3.29911
ltoes -3.80302
898
root 40.916 17.3282 1.50216 -395.006 81.0592 -397.836
lowerback 20.72 1.33661 6.01747
upperback 7.18441 3.51066 2.17703
thorax -3.54844 1.95656 -1.90526
lowerneck 1.03235 2.19572 8.56536
upperneck -8.39126 2.53829 -11.8748
head -2.35009 1.45633 -5.0753
rclavicle 3.12092e-014 2.10712e-014
rhumerus -40.2479 6.5116 -80.9694
rradius 55.2331
rwrist -1.19652
rhand -10.44 -16.7274
rfingers 7.12502
rthumb 15.5599 -46.1215
lclavicle 3.12092e-014 2.10712e-014
lhumerus -51.7963 -6.39516 85.4313
lradius 37.8726
lwrist -4.44205
lhand 11.2203 13.7292
lfingers 7.12502
lthumb 36.2828 39.9757
rfemur -6.07865 15.5359 25.7739
rtibia 25.7262
rfoot -19.1457 13.6733
rtoes 9.82543
lfemur -26.4424 -8.82981 -4.41092
ltibia 30.5737
lfoot -11.3043 -3.29604
ltoes -4.87475
899
root 40.9909 17.3053 1.47047 -394.85 80.5744 -397.675
lowerback 20.7712 1.34948 5.98666
upperback 7.20504 3.52093 2.13756
thorax -3.55089 1.96154 -1.93394
lowerneck 1.10523 2.30933 8.57192
upperneck -8.61443 2.69491 -11.684
head -2.41527 1.53225 -5.02423
rclavicle 7.95139e-016 -1.11319e-014
rhumerus -40.1869 6.25069 -80.8647
rradius 54.5461
rwrist -0.618794
rhand -10.3519 -16.7098
rfingers 7.12502
rthumb 15.6447 -46.0972
lclavicle 7.95139e-016 -1.11319e-014
lhumerus -51.399 -6.34545 85.3297
lradius 37.8221
lwrist -4.7128
lhand 11.2182 13.5732
lfingers 7.12502
lthumb 36.2808 39.8202
rfemur -5.95872 15.6492 25.9829
rtibia 25.9977
rfoot -19.4457 13.9141
rtoes 9.70751
lfemur -26.3995 -8.42812 -4.28852
ltibia 31.2606
lfoot -11.7038 -3.37453
ltoes -5.90424
900
root 41.0637 17.2854 1.4399 -394.307 80.1482 -397.139
lowerback 20.8205 1.3696 5.85343
upperback 7.22772 3.51736 2.06399
thorax -3.55561 1.9588 -1.93834
lowerneck 1.19717 2.42078 8.57413
upperneck -8.88937 2.8503 -11.4576
head -2.50027 1.60731 -4.96301
rclavicle 4.17448e-015 -1.86858e-014
rhumerus -40.1229 5.94398 -80.7688
rradius 53.8929
rwrist -0.0688922
rhand -10.2953 -16.686
rfingers 7.12502
rthumb 15.6993 -46.0691
lclavicle 4.17448e-015 -1.86858e-014
lhumerus -50.946 -6.2831 85.1727
lradius 37.789
lwrist -4.99232
lhand 11.1769 13.4051
lfingers 7.12502
lthumb 36.2418 39.6618
rfemur -5.85802 15.8108 26.097
rtibia 26.2575
rfoot -19.6846 14.11
rtoes 9.66219
lfemur -26.3622 -7.90986 -4.27144
ltibia 31.9482
lfoot -12.249 -3.54375
ltoes -6.76291
901
root 41.1347 17.2685 1.41097 -393.372 79.7871 -396.22
lowerback 20.8646 1.39924 5.60706
upperback 7.25514 3.50023 1.95275
thorax -3.55833 1.94866 -1.91595
lowerneck 1.28646 2.53234 8.55751
upperneck -9.18644 3.00892 -11.1812
head -2.59301 1.68247 -4.88393
rclavicle -6.87795e-014 -1.23246e-014
rhumerus -40.0578 5.58586 -80.6852
rradius 53.2741
rwrist 0.443219
rhand -10.2838 -16.6542
rfingers 7.12502
rthumb 15.7103 -46.0365
lclavicle -6.87795e-014 -1.23246e-014
lhumerus -50.4353 -6.22367 84.9622
lradius 37.7717
lwrist -5.25819
lhand 11.0729 13.223
lfingers 7.12502
lthumb 36.1432 39.5042
rfemur -5.7954 16.0289 26.1069
rtibia 26.5541
rfoot -19.9024 14.2503
rtoes 9.68832
lfemur -26.3557 -7.30936 -4.36501
ltibia 32.6576
lfoot -12.8776 -3.78981
ltoes -7.34845
902
root 41.2042 17.2638 1.38472 -392.097 79.5026 -394.973
lowerback 20.8921 1.43756 5.2524
upperback 7.29185 3.46885 1.80243
thorax -3.54774 1.93139 -1.86998
lowerneck 1.34411 2.63984 8.51687
upperneck -9.47565 3.16564 -10.8481
head -2.68083 1.75391 -4.78289
rclavicle 1.19271e-015 -3.3197e-014
rhumerus -39.9931 5.161 -80.6118
rradius 52.6898
rwrist 0.912245
rhand -10.3373 -16.6186
rfingers 7.12502
rthumb 15.6588 -46.005
lclavicle 1.19271e-015 -3.3197e-014
lhumerus -49.8589 -6.19121 84.7008
lradius 37.7725
lwrist -5.48645
lhand 10.8903 13.0163
lfingers 7.12502
lthumb 35.9703 39.3401
rfemur -5.75263 16.2905 26.012
rtibia 26.8601
rfoot -20.1114 14.3238
rtoes 9.75012
lfemur -26.3597 -6.66239 -4.57482
ltibia 33.3438
lfoot -13.5152 -4.10565
ltoes -7.75522
903
root 41.2726 17.2532 1.36038 -390.558 79.2929 -393.472
lowerback 20.9051 1.47958 4.8076
upperback 7.33403 3.42133 1.61663
thorax -3.5279 1.90594 -1.80639
lowerneck 1.35608 2.74072 8.43529
upperneck -9.72589 3.3178 -10.4477
head -2.75318 1.81981 -4.65288
rclavicle -5.42682e-014 -7.55382e-015
rhumerus -39.9424 4.68167 -80.5502
rradius 52.1426
rwrist 1.32921
rhand -10.4568 -16.5888
rfingers 7.12502
rthumb 15.5437 -45.9841
lclavicle -5.42682e-014 -7.55382e-015
lhumerus -49.2254 -6.20377 84.3961
lradius 37.8008
lwrist -5.64163
lhand 10.6266 12.7991
lfingers 7.12502
lthumb 35.7204 39.1839
rfemur -5.73425 16.5816 25.8207
rtibia 27.1809
rfoot -20.3226 14.3354
rtoes 9.83923
lfemur -26.4181 -6.00104 -4.88145
ltibia 34.0202
lfoot -14.0396 -4.48511
ltoes -7.84435
904
root 41.3398 17.245 1.33848 -388.914 79.1492 -391.883
lowerback 20.8958 1.52001 4.31393
upperback 7.3809 3.35992 1.40506
thorax -3.49312 1.87389 -1.73804
lowerneck 1.3116 2.83026 8.31678
upperneck -9.9198 3.45823 -9.99262
head -2.80357 1.87683 -4.49772
rclavicle 3.73715e-014 3.57812e-015
rhumerus -39.9116 4.14992 -80.4972
rradius 51.6359
rwrist 1.68401
rhand -10.6398 -16.574
rfingers 7.12502
rthumb 15.3675 -45.983
lclavicle 3.73715e-014 3.57812e-015
lhumerus -48.5367 -6.28303 84.0564
lradius 37.8663
lwrist -5.71833
lhand 10.2853 12.5702
lfingers 7.12502
lthumb 35.3969 39.0327
rfemur -5.7201 16.8737 25.57
rtibia 27.4743
rfoot -20.5689 14.2585
rtoes 9.7686
lfemur -26.5096 -5.35166 -5.2549
ltibia 34.6566
lfoot -14.4703 -4.93053
ltoes -7.76812
905
root 41.406 17.2382 1.31876 -387.37 79.0576 -390.409
lowerback 20.8745 1.54901 3.82441
upperback 7.42618 3.28437 1.17907
thorax -3.45267 1.83514 -1.68329
lowerneck 1.22042 2.90712 8.17491
upperneck -10.0569 3.58466 -9.49879
head -2.83304 1.92456 -4.32483
rclavicle 4.84538e-015 -1.4064e-014
rhumerus -39.9153 3.58008 -80.458
rradius 51.1758
rwrist 1.97313
rhand -10.8806 -16.5868
rfingers 7.12502
rthumb 15.1355 -46.0133
lclavicle 4.84538e-015 -1.4064e-014
lhumerus -47.8049 -6.44042 83.6822
lradius 37.9821
lwrist -5.71466
lhand 9.90122 12.3409
lfingers 7.12502
lthumb 35.0326 38.8894
rfemur -5.71678 17.1527 25.3081
rtibia 27.7697
rfoot -20.8549 14.1082
rtoes 9.61029
lfemur -26.6464 -4.73881 -5.64537
ltibia 35.2913
lfoot -14.871 -5.37026
ltoes -7.67572
906
root 41.4715 17.2322 1.30056 -386.122 78.9979 -389.246
lowerback 20.8412 1.55882 3.39558
upperback 7.47117 3.19698 0.952059
thorax -3.40251 1.79151 -1.6603
lowerneck 1.11452 2.96779 8.01563
upperneck -10.1718 3.69139 -8.9882
head -2.85684 1.96214 -4.1433
rclavicle -2.76062e-014 -4.72114e-015
rhumerus -39.95 3.00035 -80.4371
rradius 50.7601
rwrist 2.17965
rhand -11.1738 -16.6418
rfingers 7.12502
rthumb 14.853 -46.0895
lclavicle -2.76062e-014 -4.72114e-015
lhumerus -47.0289 -6.67713 83.2785
lradius 38.1547
lwrist -5.62535
lhand 9.47367 12.1193
lfingers 7.12502
lthumb 34.627 38.7616
rfemur -5.68561 17.4019 25.0851
rtibia 27.9901
rfoot -21.1537 13.8863
rtoes 9.32105
lfemur -26.8063 -4.1724 -6.00001
ltibia 35.8933
lfoot -15.238 -5.80476
ltoes -7.59269
907
root 41.5355 17.2272 1.28347 -385.339 78.9686 -388.573
lowerback 20.8034 1.54167 3.06885
upperback 7.50742 3.09661 0.737324
thorax -3.3544 1.74228 -1.67881
lowerneck 1.02111 3.01334 7.85622
upperneck -10.2904 3.77886 -8.49239
head -2.88578 1.99119 -3.96677
rclavicle -8.49804e-015 9.93923e-017
rhumerus -40.0208 2.43217 -80.4339
rradius 50.3876
rwrist 2.29619
rhand -11.5096 -16.734
rfingers 7.12502
rthumb 14.5295 -46.2052
lclavicle -8.49804e-015 9.93923e-017
lhumerus -46.2237 -6.97885 82.8451
lradius 38.3985
lwrist -5.48927
lhand 9.047 11.9139
lfingers 7.12502
lthumb 34.2219 38.6482
rfemur -5.63102 17.6089 24.9368
rtibia 28.1172
rfoot -21.4324 13.6104
rtoes 8.96357
lfemur -27.0032 -3.66104 -6.27834
ltibia 36.475
lfoot -15.5855 -6.23497
ltoes -7.51586
908
root 41.598 17.2227 1.26675 -385.133 78.9576 -388.494
lowerback 20.7663 1.49293 2.87138
upperback 7.53835 2.98311 0.545574
thorax -3.30703 1.68786 -1.74306
lowerneck 0.96898 3.04799 7.713
upperneck -10.4524 3.85194 -8.04019
head -2.93469 2.01535 -3.8082
rclavicle 3.51849e-014 3.97569e-016
rhumerus -40.1152 1.9066 -80.4518
rradius 50.0543
rwrist 2.31817
rhand -11.8645 -16.8767
rfingers 7.12502
rthumb 14.1876 -46.3722
lclavicle 3.51849e-014 3.97569e-016
lhumerus -45.3894 -7.31872 82.3805
lradius 38.7112
lwrist -5.3448
lhand 8.61694 11.71
lfingers 7.12502
lthumb 33.8134 38.535
rfemur -5.53989 17.771 24.8913
rtibia 28.1409
rfoot -21.6615 13.3033
rtoes 8.62987
lfemur -27.2369 -3.21544 -6.44811
ltibia 37.0493
lfoot -15.9186 -6.65686
ltoes -7.44696
909
root 41.6589 17.2187 1.24977 -385.494 78.953 -388.997
lowerback 20.7396 1.41654 2.80638
upperback 7.55859 2.86211 0.383011
thorax -3.2717 1.63061 -1.8503
lowerneck 0.979661 3.07628 7.58922
upperneck -10.6712 3.91621 -7.65283
head -3.00986 2.03817 -3.67528
rclavicle -2.3556e-014 -1.76918e-014
rhumerus -40.2358 1.4494 -80.49
rradius 49.7539
rwrist 2.24487
rhand -12.2335 -17.056
rfingers 7.12502
rthumb 13.832 -46.576
lclavicle -2.3556e-014 -1.76918e-014
lhumerus -44.5396 -7.66949 81.8891
lradius 39.0901
lwrist -5.20182
lhand 8.16692 11.5057
lfingers 7.12502
lthumb 33.3857 38.4237
rfemur -5.41295 17.8936 24.9513
rtibia 28.0636
rfoot -21.834 12.9812
rtoes 8.35423
lfemur -27.5014 -2.84474 -6.50147
ltibia 37.6181
lfoot -16.2381 -7.05731
ltoes -7.38389
910
root 41.7184 17.2152 1.2319 -386.332 78.9504 -389.991
lowerback 20.7258 1.31731 2.85574
upperback 7.56645 2.73593 0.253057
thorax -3.25301 1.57125 -1.9874
lowerneck 1.05074 3.10479 7.47608
upperneck -10.9397 3.97979 -7.33376
head -3.10819 2.06381 -3.56751
rclavicle -3.37934e-014 -1.98785e-015
rhumerus -40.3787 1.08462 -80.5426
rradius 49.4782
rwrist 2.08171
rhand -12.6052 -17.2651
rfingers 7.12502
rthumb 13.4738 -46.8092
lclavicle -3.37934e-014 -1.98785e-015
lhumerus -43.686 -7.99842 81.381
lradius 39.5343
lwrist -5.05835
lhand 7.67243 11.2977
lfingers 7.12502
lthumb 32.9155 38.3157
rfemur -5.28203 17.9682 25.0961
rtibia 27.9547
rfoot -21.9891 12.6609
rtoes 8.12496
lfemur -27.8082 -2.55637 -6.45493
ltibia 38.224
lfoot -16.5785 -7.4181
ltoes -7.32241
